<svg xmlns="http://www.w3.org/2000/svg" xmlns:xlink="http://www.w3.org/1999/xlink" width="500" zoomAndPan="magnify" viewBox="0 0 375 374.999991" height="500" preserveAspectRatio="xMidYMid meet" version="1.0"><rect x="-37.5" width="450" fill="#ffffff" y="-37.499999" height="449.999989" fill-opacity="1"/><rect x="-37.5" width="450" fill="#ffffff" y="-37.499999" height="449.999989" fill-opacity="1"/><path fill="#fefefe" d="M 0 0 C 123.75 0 247.5 0 375 0 C 375 123.75 375 247.5 375 375 C 251.25 375 127.5 375 0 375 C 0 251.25 0 127.5 0 0 Z M 0 0 " fill-opacity="1" fill-rule="nonzero"/><path fill="#000000" d="M 129.558594 32.390625 C 129.636719 32.390625 129.71875 32.390625 129.796875 32.390625 C 129.796875 72.371094 129.796875 112.355469 129.796875 153.550781 C 143.335938 153.550781 156.875 153.550781 170.824219 153.550781 C 169.21875 155.695312 169.21875 155.695312 168.441406 156.429688 C 167.652344 157.179688 166.949219 157.976562 166.238281 158.796875 C 165.515625 159.617188 164.765625 160.40625 164.015625 161.199219 C 162.863281 162.425781 161.71875 163.660156 160.597656 164.921875 C 159.722656 165.886719 158.832031 166.835938 157.941406 167.785156 C 156.847656 168.953125 155.761719 170.132812 154.679688 171.316406 C 153.988281 172.074219 153.289062 172.828125 152.589844 173.585938 C 151.667969 174.582031 150.75 175.582031 149.832031 176.582031 C 148.792969 177.71875 147.75 178.847656 146.707031 179.976562 C 145.90625 180.84375 145.109375 181.710938 144.3125 182.582031 C 143.039062 183.972656 141.757812 185.359375 140.480469 186.746094 C 139.878906 187.398438 139.277344 188.046875 138.675781 188.699219 C 137.953125 189.480469 137.230469 190.265625 136.507812 191.046875 C 135.789062 191.824219 135.074219 192.601562 134.355469 193.378906 C 134.238281 193.503906 134.121094 193.632812 134 193.765625 C 133.65625 194.140625 133.308594 194.515625 132.960938 194.894531 C 132.761719 195.109375 132.5625 195.328125 132.359375 195.550781 C 132.042969 195.898438 132.042969 195.898438 131.71875 196.257812 C 131.578125 196.363281 131.4375 196.46875 131.296875 196.574219 C 130.429688 197.320312 130.011719 198.027344 129.882812 199.15625 C 129.800781 200.441406 129.816406 201.730469 129.824219 203.019531 C 129.824219 203.515625 129.820312 204.011719 129.816406 204.507812 C 129.8125 205.855469 129.8125 207.199219 129.820312 208.546875 C 129.824219 209.953125 129.816406 211.359375 129.8125 212.765625 C 129.804688 215.429688 129.804688 218.09375 129.8125 220.753906 C 129.816406 224.355469 129.808594 227.953125 129.800781 231.554688 C 129.789062 237.222656 129.796875 242.890625 129.796875 248.558594 C 143.335938 248.558594 156.875 248.558594 170.824219 248.558594 C 169.21875 250.703125 169.21875 250.703125 168.441406 251.441406 C 167.675781 252.183594 166.972656 252.953125 166.277344 253.761719 C 165.65625 254.46875 165.015625 255.15625 164.378906 255.847656 C 163.519531 256.773438 162.667969 257.699219 161.828125 258.636719 C 160.875 259.703125 159.90625 260.75 158.933594 261.800781 C 158.214844 262.578125 157.5 263.363281 156.789062 264.15625 C 155.957031 265.082031 155.117188 266 154.269531 266.914062 C 153.242188 268.023438 152.226562 269.140625 151.21875 270.265625 C 150.488281 271.078125 149.75 271.878906 149.011719 272.683594 C 148.328125 273.429688 147.644531 274.179688 146.96875 274.9375 C 146.007812 276.007812 145.035156 277.0625 144.058594 278.113281 C 143.339844 278.894531 142.625 279.679688 141.914062 280.46875 C 141.082031 281.398438 140.242188 282.316406 139.394531 283.230469 C 138.367188 284.339844 137.351562 285.457031 136.339844 286.582031 C 135.402344 287.625 134.453125 288.65625 133.503906 289.6875 C 133.140625 290.085938 132.777344 290.484375 132.410156 290.882812 C 132.289062 291.015625 132.167969 291.144531 132.042969 291.28125 C 131.8125 291.539062 131.578125 291.792969 131.34375 292.046875 C 130.546875 292.917969 130.546875 292.917969 130.277344 293.1875 C 129.691406 293.210938 129.113281 293.21875 128.527344 293.214844 C 128.25 293.214844 128.25 293.214844 127.964844 293.214844 C 127.339844 293.214844 126.714844 293.214844 126.089844 293.214844 C 125.640625 293.214844 125.195312 293.214844 124.75 293.214844 C 123.53125 293.214844 122.3125 293.210938 121.097656 293.210938 C 119.828125 293.210938 118.558594 293.207031 117.285156 293.207031 C 114.878906 293.207031 112.472656 293.207031 110.066406 293.203125 C 107.324219 293.199219 104.585938 293.199219 101.84375 293.199219 C 96.207031 293.195312 90.570312 293.191406 84.933594 293.1875 C 84.902344 273.015625 84.878906 252.84375 84.863281 232.675781 C 84.863281 232.378906 84.859375 232.078125 84.859375 231.769531 C 84.855469 225.285156 84.851562 218.800781 84.847656 212.316406 C 84.84375 209.136719 84.84375 205.957031 84.839844 202.777344 C 84.839844 202.460938 84.839844 202.144531 84.839844 201.820312 C 84.835938 194.4375 84.828125 187.054688 84.816406 179.671875 C 84.816406 179.511719 84.816406 179.355469 84.816406 179.191406 C 84.8125 176.472656 84.808594 173.753906 84.804688 171.035156 C 84.789062 160.492188 84.777344 149.949219 84.773438 139.40625 C 84.773438 137.917969 84.773438 136.429688 84.773438 134.941406 C 84.773438 134.648438 84.773438 134.355469 84.773438 134.054688 C 84.769531 129.332031 84.761719 124.613281 84.753906 119.894531 C 84.742188 115.152344 84.738281 110.410156 84.742188 105.667969 C 84.742188 102.847656 84.738281 100.027344 84.730469 97.207031 C 84.722656 95.328125 84.722656 93.445312 84.726562 91.5625 C 84.730469 90.488281 84.730469 89.417969 84.722656 88.34375 C 84.714844 87.367188 84.71875 86.390625 84.722656 85.414062 C 84.726562 85.0625 84.722656 84.710938 84.71875 84.363281 C 84.683594 81.425781 84.683594 81.425781 85.734375 80.210938 C 86.019531 79.9375 86.3125 79.671875 86.613281 79.414062 C 86.894531 79.113281 87.175781 78.8125 87.453125 78.507812 C 87.730469 78.210938 88.011719 77.914062 88.292969 77.613281 C 89.285156 76.558594 90.265625 75.496094 91.210938 74.394531 C 91.9375 73.566406 92.691406 72.765625 93.441406 71.957031 C 94.167969 71.167969 94.894531 70.378906 95.609375 69.578125 C 96.441406 68.648438 97.28125 67.734375 98.128906 66.820312 C 99.15625 65.707031 100.171875 64.589844 101.183594 63.464844 C 102.347656 62.171875 103.527344 60.894531 104.707031 59.609375 C 106.015625 58.1875 107.316406 56.757812 108.609375 55.316406 C 109.34375 54.503906 110.082031 53.699219 110.824219 52.894531 C 111.511719 52.144531 112.191406 51.394531 112.867188 50.640625 C 113.828125 49.570312 114.800781 48.515625 115.777344 47.460938 C 116.679688 46.484375 117.570312 45.5 118.457031 44.511719 C 119.398438 43.464844 120.351562 42.429688 121.304688 41.394531 C 121.855469 40.792969 122.410156 40.191406 122.960938 39.585938 C 123.625 38.863281 124.289062 38.136719 124.957031 37.410156 C 126.195312 36.0625 127.429688 34.707031 128.652344 33.339844 C 128.945312 33.015625 129.25 32.699219 129.558594 32.390625 Z M 129.558594 32.390625 " fill-opacity="1" fill-rule="nonzero"/><path fill="#101010" d="M 243.132812 81.542969 C 243.578125 81.542969 244.027344 81.542969 244.472656 81.539062 C 245.679688 81.539062 246.890625 81.554688 248.097656 81.570312 C 249.363281 81.585938 250.628906 81.585938 251.894531 81.589844 C 254.289062 81.597656 256.679688 81.617188 259.074219 81.640625 C 261.800781 81.667969 264.527344 81.679688 267.253906 81.691406 C 272.859375 81.71875 278.464844 81.761719 284.070312 81.8125 C 284.128906 102.027344 284.1875 122.238281 284.222656 142.449219 C 284.222656 142.75 284.222656 143.046875 284.222656 143.355469 C 284.234375 149.855469 284.242188 156.359375 284.253906 162.859375 C 284.257812 165.886719 284.261719 168.914062 284.265625 171.941406 C 284.265625 172.421875 284.265625 172.902344 284.269531 173.386719 C 284.277344 180.785156 284.292969 188.183594 284.316406 195.582031 C 284.316406 195.820312 284.316406 195.820312 284.316406 196.0625 C 284.324219 198.789062 284.335938 201.511719 284.34375 204.234375 C 284.378906 214.800781 284.398438 225.371094 284.40625 235.9375 C 284.40625 237.429688 284.410156 238.921875 284.410156 240.414062 C 284.410156 240.707031 284.410156 241.003906 284.410156 241.304688 C 284.414062 246.035156 284.433594 250.761719 284.453125 255.492188 C 284.476562 260.246094 284.484375 265 284.476562 269.753906 C 284.476562 272.578125 284.480469 275.402344 284.503906 278.226562 C 284.515625 280.113281 284.519531 282 284.507812 283.890625 C 284.503906 284.964844 284.503906 286.039062 284.519531 287.113281 C 284.617188 294.144531 284.617188 294.144531 282.808594 296.273438 C 282.203125 296.867188 281.578125 297.398438 280.894531 297.898438 C 280.292969 298.359375 279.816406 298.910156 279.332031 299.484375 C 278.558594 300.351562 277.777344 301.207031 276.992188 302.0625 C 276.191406 302.933594 275.394531 303.808594 274.605469 304.6875 C 273.648438 305.757812 272.675781 306.8125 271.699219 307.863281 C 270.796875 308.839844 269.90625 309.824219 269.019531 310.816406 C 267.855469 312.109375 266.671875 313.386719 265.496094 314.667969 C 264.363281 315.902344 263.234375 317.132812 262.117188 318.378906 C 260.773438 319.871094 259.414062 321.347656 258.058594 322.828125 C 256.925781 324.058594 255.796875 325.289062 254.679688 326.535156 C 253.335938 328.027344 251.976562 329.503906 250.621094 330.984375 C 249.488281 332.214844 248.359375 333.449219 247.242188 334.691406 C 246.457031 335.566406 245.664062 336.4375 244.871094 337.300781 C 244.761719 337.421875 244.652344 337.539062 244.539062 337.664062 C 243.960938 338.292969 243.382812 338.921875 242.800781 339.550781 C 242.683594 339.679688 242.566406 339.808594 242.445312 339.941406 C 242.117188 340.296875 241.789062 340.648438 241.460938 341.003906 C 240.875 341.644531 240.875 341.644531 240.355469 342.332031 C 240.214844 342.503906 240.070312 342.675781 239.921875 342.851562 C 239.765625 342.851562 239.605469 342.851562 239.441406 342.851562 C 239.441406 302.789062 239.441406 262.726562 239.441406 221.449219 C 225.824219 221.449219 212.207031 221.449219 198.175781 221.449219 C 199.0625 220.417969 199.941406 219.402344 200.859375 218.40625 C 201.09375 218.152344 201.324219 217.902344 201.554688 217.652344 C 201.730469 217.460938 201.730469 217.460938 201.90625 217.269531 C 202.351562 216.785156 202.792969 216.304688 203.234375 215.820312 C 204.386719 214.5625 205.542969 213.308594 206.699219 212.058594 C 207.5 211.191406 208.296875 210.324219 209.09375 209.453125 C 210.609375 207.796875 212.132812 206.148438 213.65625 204.5 C 215.378906 202.636719 217.097656 200.769531 218.808594 198.894531 C 220.765625 196.761719 222.726562 194.628906 224.691406 192.503906 C 225.972656 191.117188 227.253906 189.730469 228.527344 188.339844 C 230.042969 186.683594 231.566406 185.035156 233.089844 183.386719 C 233.808594 182.609375 234.527344 181.828125 235.246094 181.050781 C 235.613281 180.652344 235.980469 180.257812 236.347656 179.859375 C 236.585938 179.601562 236.820312 179.34375 237.058594 179.085938 C 237.269531 178.859375 237.480469 178.632812 237.699219 178.398438 C 237.878906 178.195312 238.058594 177.992188 238.242188 177.78125 C 238.371094 177.652344 238.5 177.523438 238.632812 177.390625 C 239.121094 176.554688 239.066406 175.738281 239.058594 174.796875 C 239.0625 174.589844 239.0625 174.382812 239.0625 174.167969 C 239.070312 173.476562 239.066406 172.78125 239.066406 172.089844 C 239.070312 171.59375 239.070312 171.097656 239.074219 170.601562 C 239.082031 169.25 239.082031 167.902344 239.085938 166.550781 C 239.085938 165.140625 239.09375 163.734375 239.097656 162.324219 C 239.109375 159.652344 239.117188 156.984375 239.121094 154.3125 C 239.128906 150.707031 239.144531 147.101562 239.15625 143.492188 C 239.175781 137.808594 239.1875 132.125 239.203125 126.441406 C 225.664062 126.441406 212.125 126.441406 198.175781 126.441406 C 199.070312 125.398438 199.960938 124.371094 200.890625 123.367188 C 201.710938 122.476562 202.527344 121.582031 203.335938 120.679688 C 204.675781 119.1875 206.035156 117.710938 207.394531 116.234375 C 208.523438 115 209.65625 113.769531 210.773438 112.523438 C 212.113281 111.03125 213.472656 109.554688 214.832031 108.074219 C 216.140625 106.652344 217.441406 105.222656 218.734375 103.78125 C 219.46875 102.96875 220.207031 102.164062 220.949219 101.359375 C 221.636719 100.609375 222.316406 99.859375 222.992188 99.101562 C 223.953125 98.035156 224.925781 96.980469 225.902344 95.925781 C 226.804688 94.949219 227.695312 93.964844 228.582031 92.976562 C 229.746094 91.683594 230.929688 90.402344 232.105469 89.121094 C 233.246094 87.878906 234.386719 86.636719 235.515625 85.382812 C 235.679688 85.203125 235.847656 85.023438 236.019531 84.839844 C 236.570312 84.234375 236.570312 84.234375 236.984375 83.582031 C 238.621094 81.300781 240.574219 81.488281 243.132812 81.542969 Z M 243.132812 81.542969 " fill-opacity="1" fill-rule="nonzero"/><path fill="#494949" d="M 129.796875 248.558594 C 143.335938 248.558594 156.875 248.558594 170.824219 248.558594 C 169.21875 250.703125 169.21875 250.703125 168.441406 251.441406 C 167.675781 252.183594 166.972656 252.953125 166.277344 253.761719 C 165.65625 254.46875 165.015625 255.15625 164.378906 255.847656 C 163.519531 256.773438 162.667969 257.699219 161.828125 258.636719 C 160.875 259.703125 159.90625 260.75 158.933594 261.800781 C 158.214844 262.578125 157.5 263.363281 156.789062 264.15625 C 155.957031 265.082031 155.117188 266 154.269531 266.914062 C 153.242188 268.023438 152.226562 269.140625 151.21875 270.265625 C 150.488281 271.078125 149.75 271.878906 149.011719 272.683594 C 148.328125 273.429688 147.644531 274.179688 146.96875 274.9375 C 146.007812 276.007812 145.035156 277.0625 144.058594 278.113281 C 143.339844 278.894531 142.625 279.679688 141.914062 280.46875 C 141.082031 281.398438 140.242188 282.316406 139.394531 283.230469 C 138.367188 284.339844 137.351562 285.457031 136.339844 286.582031 C 135.625 287.378906 134.902344 288.167969 134.175781 288.957031 C 133.589844 289.59375 133.003906 290.234375 132.429688 290.882812 C 132.25 291.078125 132.25 291.078125 132.066406 291.28125 C 131.839844 291.535156 131.613281 291.792969 131.386719 292.046875 C 130.859375 292.632812 130.558594 292.933594 129.796875 293.1875 C 129.796875 278.460938 129.796875 263.734375 129.796875 248.558594 Z M 129.796875 248.558594 " fill-opacity="1" fill-rule="nonzero"/><path fill="#494949" d="M 129.796875 153.550781 C 143.335938 153.550781 156.875 153.550781 170.824219 153.550781 C 169.21875 155.695312 169.21875 155.695312 168.441406 156.429688 C 167.652344 157.179688 166.949219 157.976562 166.238281 158.796875 C 165.515625 159.617188 164.765625 160.40625 164.015625 161.199219 C 162.863281 162.425781 161.71875 163.660156 160.597656 164.921875 C 159.722656 165.886719 158.832031 166.835938 157.941406 167.785156 C 156.847656 168.953125 155.761719 170.132812 154.679688 171.316406 C 153.988281 172.074219 153.289062 172.828125 152.589844 173.585938 C 151.667969 174.582031 150.75 175.582031 149.832031 176.582031 C 148.792969 177.71875 147.75 178.847656 146.707031 179.976562 C 145.90625 180.84375 145.109375 181.710938 144.3125 182.582031 C 143.039062 183.972656 141.757812 185.359375 140.480469 186.746094 C 139.878906 187.398438 139.277344 188.046875 138.675781 188.699219 C 137.953125 189.480469 137.230469 190.265625 136.507812 191.046875 C 135.789062 191.824219 135.074219 192.601562 134.355469 193.378906 C 134.179688 193.570312 134.179688 193.570312 134 193.765625 C 132.757812 195.109375 131.523438 196.460938 130.335938 197.859375 C 130.238281 197.964844 130.140625 198.066406 130.039062 198.175781 C 129.960938 198.175781 129.878906 198.175781 129.796875 198.175781 C 129.796875 183.449219 129.796875 168.722656 129.796875 153.550781 Z M 129.796875 153.550781 " fill-opacity="1" fill-rule="nonzero"/></svg>